<svg width="20" height="20" viewBox="0 0 20 20" fill="none" xmlns="http://www.w3.org/2000/svg">
<g clip-path="url(#clip0_1_527)">
<path d="M16.3333 4.45833C17.2078 4.45833 17.9167 3.74945 17.9167 2.875C17.9167 2.00055 17.2078 1.29167 16.3333 1.29167C15.4589 1.29167 14.75 2.00055 14.75 2.875C14.75 3.74945 15.4589 4.45833 16.3333 4.45833Z" fill="#37352F"/>
<path d="M3.66667 4.45833C4.54112 4.45833 5.25 3.74945 5.25 2.875C5.25 2.00055 4.54112 1.29167 3.66667 1.29167C2.79222 1.29167 2.08333 2.00055 2.08333 2.875C2.08333 3.74945 2.79222 4.45833 3.66667 4.45833Z" fill="#37352F"/>
<path d="M10 5.25C11.3117 5.25 12.375 4.18668 12.375 2.875C12.375 1.56332 11.3117 0.5 10 0.5C8.68832 0.5 7.625 1.56332 7.625 2.875C7.625 4.18668 8.68832 5.25 10 5.25Z" fill="#37352F"/>
<path d="M1.09375 8.41667H2.47917V15.9375C2.47917 17.2469 3.54475 18.3125 4.85417 18.3125H8.02083V18.9062C8.02083 19.234 8.28683 19.5 8.61458 19.5H11.3854C11.7132 19.5 11.9792 19.234 11.9792 18.9062V18.3125H15.1458C16.4552 18.3125 17.5208 17.2469 17.5208 15.9375V8.41667H18.9062C19.2308 8.41667 19.5 8.1475 19.5 7.82292V7.42708C19.5 6.22375 18.5262 5.25 17.3229 5.25H15.3437C14.8292 5.25 14.3621 5.42417 13.99 5.71708C14.9875 6.27125 15.7079 7.25292 15.89 8.41667H15.9375V15.9375C15.9375 16.3737 15.582 16.7292 15.1458 16.7292H11.9792V16.1354C11.9792 15.8077 11.7132 15.5417 11.3854 15.5417H10.7917V10.7917H13.7604C14.0882 10.7917 14.3542 10.5257 14.3542 10.1979V9.01042C14.3542 7.80946 13.378 6.83333 12.1771 6.83333H7.82292C6.62196 6.83333 5.64583 7.80946 5.64583 9.01042V10.1979C5.64583 10.5257 5.91183 10.7917 6.23958 10.7917H9.20833V15.5417H8.61458C8.28683 15.5417 8.02083 15.8077 8.02083 16.1354V16.7292H4.85417C4.41796 16.7292 4.0625 16.3737 4.0625 15.9375V8.41667H4.11C4.29208 7.25292 5.0125 6.27125 6.01 5.71708C5.63792 5.42417 5.17083 5.25 4.65625 5.25H2.67708C1.47375 5.25 0.5 6.22375 0.5 7.42708V7.82292C0.5 8.1475 0.769167 8.41667 1.09375 8.41667Z" fill="#37352F"/>
</g>
<defs>
<clipPath id="clip0_1_527">
<rect width="20" height="20" fill="white"/>
</clipPath>
</defs>
</svg>
