<svg width="26" height="26" viewBox="0 0 26 26" fill="none" xmlns="http://www.w3.org/2000/svg">
<path d="M23.3545 13.325L21.0167 6.29849C20.7858 5.49937 20.302 4.79667 19.6379 4.29584C18.9738 3.79501 18.1652 3.52307 17.3334 3.52083H8.66669C7.83489 3.52307 7.02625 3.79501 6.36213 4.29584C5.698 4.79667 5.21421 5.49937 4.98335 6.29849L2.6466 13.325C2.50785 13.7395 2.43724 14.1738 2.43752 14.6109V19.5C2.3739 20.0489 2.43522 20.605 2.61688 21.1269C2.79855 21.6487 3.09586 22.1227 3.48658 22.5134C3.87729 22.9042 4.3513 23.2015 4.87314 23.3831C5.39498 23.5648 5.95114 23.6261 6.50002 23.5625H19.5C20.0489 23.6261 20.6051 23.5648 21.1269 23.3831C21.6487 23.2015 22.1227 22.9042 22.5135 22.5134C22.9042 22.1227 23.2015 21.6487 23.3832 21.1269C23.5648 20.605 23.6261 20.0489 23.5625 19.5V14.6109C23.5628 14.1739 23.4926 13.7396 23.3545 13.325ZM6.53035 6.81199C6.65488 6.33866 6.93133 5.9193 7.31727 5.6183C7.70321 5.3173 8.17728 5.15131 8.66669 5.14583H17.3334C17.8228 5.15131 18.2968 5.3173 18.6828 5.6183C19.0687 5.9193 19.3452 6.33866 19.4697 6.81199L21.7122 13.5417H18.4622C17.8191 13.557 17.1915 13.7416 16.6425 14.0769C16.0936 14.4122 15.6428 14.8864 15.3357 15.4516C15.0971 15.8602 14.7556 16.1992 14.3453 16.4348C13.9349 16.6705 13.47 16.7944 12.9968 16.7944C12.5236 16.7944 12.0586 16.6705 11.6483 16.4348C11.2379 16.1992 10.8964 15.8602 10.6579 15.4516C10.351 14.8869 9.90071 14.413 9.3524 14.0777C8.80409 13.7424 8.17711 13.5575 7.5346 13.5417H4.2846L6.53035 6.81199ZM7.85419 10.8333C7.85419 10.6178 7.93979 10.4112 8.09216 10.2588C8.24454 10.1064 8.4512 10.0208 8.66669 10.0208H17.3334C17.5488 10.0208 17.7555 10.1064 17.9079 10.2588C18.0603 10.4112 18.1459 10.6178 18.1459 10.8333C18.1459 11.0488 18.0603 11.2555 17.9079 11.4079C17.7555 11.5602 17.5488 11.6458 17.3334 11.6458H8.66669C8.4512 11.6458 8.24454 11.5602 8.09216 11.4079C7.93979 11.2555 7.85419 11.0488 7.85419 10.8333ZM8.93752 7.58333C8.93752 7.36784 9.02312 7.16118 9.1755 7.0088C9.32787 6.85643 9.53453 6.77083 9.75002 6.77083H16.25C16.4655 6.77083 16.6722 6.85643 16.8245 7.0088C16.9769 7.16118 17.0625 7.36784 17.0625 7.58333C17.0625 7.79882 16.9769 8.00548 16.8245 8.15785C16.6722 8.31023 16.4655 8.39583 16.25 8.39583H9.75002C9.53453 8.39583 9.32787 8.31023 9.1755 8.15785C9.02312 8.00548 8.93752 7.79882 8.93752 7.58333Z" fill="#37352F"/>
</svg>
