<svg width="20" height="20" viewBox="0 0 20 20" fill="none" xmlns="http://www.w3.org/2000/svg">
<path d="M7 0.5C7.55228 0.5 8 0.947715 8 1.5V2.5H12V1.5C12 0.947715 12.4477 0.5 13 0.5C13.5523 0.5 14 0.947715 14 1.5V2.5H17C18.1046 2.5 19 3.39543 19 4.5V17.5C19 18.6046 18.1046 19.5 17 19.5H3C1.89543 19.5 1 18.6046 1 17.5V4.5C1 3.39543 1.89543 2.5 3 2.5H6V1.5C6 0.947715 6.44772 0.5 7 0.5ZM6 4.5H3V7.5H17V4.5H14V5.5C14 6.05228 13.5523 6.5 13 6.5C12.4477 6.5 12 6.05228 12 5.5V4.5H8V5.5C8 6.05228 7.55228 6.5 7 6.5C6.44772 6.5 6 6.05228 6 5.5V4.5ZM17 9.5H3V17.5H17V9.5Z" fill="#37352F"/>
</svg>
