<svg width="25" height="23" viewBox="0 0 25 23" fill="none" xmlns="http://www.w3.org/2000/svg">
<path fill-rule="evenodd" clip-rule="evenodd" d="M0.125 3.0625C0.125 1.81986 1.13236 0.8125 2.375 0.8125H20.375C21.6177 0.8125 22.625 1.81986 22.625 3.0625V7H20.375V3.0625H2.375V13.975H9.125V16.225H2.375C1.13236 16.225 0.125 15.2177 0.125 13.975V3.0625Z" fill="#37352F"/>
<path fill-rule="evenodd" clip-rule="evenodd" d="M1.75656 1.31866C1.26331 1.31866 0.827586 1.63996 0.681809 2.11118C0.536031 2.58239 0.714209 3.09361 1.12129 3.37214L10.7401 9.95343C11.123 10.2154 11.6276 10.2154 12.0106 9.95343L21.6294 3.37214C22.0364 3.09361 22.2146 2.58239 22.0688 2.11118C21.923 1.63996 21.4873 1.31866 20.9941 1.31866H1.75656Z" fill="#37352F"/>
<path fill-rule="evenodd" clip-rule="evenodd" d="M11.375 15.4375C11.375 11.7096 14.3971 8.6875 18.125 8.6875C21.8529 8.6875 24.875 11.7096 24.875 15.4375C24.875 19.1654 21.8529 22.1875 18.125 22.1875C14.3971 22.1875 11.375 19.1654 11.375 15.4375ZM21.6414 15.191L18.8289 17.441C18.4181 17.7696 17.8342 17.7696 17.4233 17.441L14.6108 15.191L16.0164 13.434L18.1261 15.1218L20.2358 13.434L21.6414 15.191Z" fill="#37352F"/>
</svg>
