<svg width="20" height="20" viewBox="0 0 20 20" fill="none" xmlns="http://www.w3.org/2000/svg">
<path d="M2.27053 2.17053H8C8.05523 2.17053 8.1 2.21531 8.1 2.27053V8C8.1 8.05523 8.05523 8.1 8 8.1H2.27054C2.21531 8.1 2.17053 8.05523 2.17053 8V2.27054C2.17053 2.21531 2.21531 2.17053 2.27053 2.17053ZM2.27053 11.9H8C8.05523 11.9 8.1 11.9448 8.1 12V17.7295C8.1 17.7847 8.05523 17.8295 8 17.8295H2.27054C2.21531 17.8295 2.17053 17.7847 2.17053 17.7295V12C2.17053 11.9448 2.21531 11.9 2.27053 11.9ZM12 2.17053H17.7295C17.7847 2.17053 17.8295 2.21531 17.8295 2.27053V8C17.8295 8.05523 17.7847 8.1 17.7295 8.1H12C11.9448 8.1 11.9 8.05523 11.9 8V2.27054C11.9 2.21531 11.9448 2.17053 12 2.17053ZM12 11.9H17.7295C17.7847 11.9 17.8295 11.9448 17.8295 12V17.7295C17.8295 17.7847 17.7847 17.8295 17.7295 17.8295H12C11.9448 17.8295 11.9 17.7847 11.9 17.7295V12C11.9 11.9448 11.9448 11.9 12 11.9Z" stroke="#37352F" stroke-width="1.8"/>
</svg>
