<svg width="20" height="20" viewBox="0 0 20 20" fill="none" xmlns="http://www.w3.org/2000/svg">
<path fill-rule="evenodd" clip-rule="evenodd" d="M17.8264 3.2H12.3597C12.0083 2.214 11.0878 1.5 10 1.5C8.91218 1.5 7.99171 2.214 7.64026 3.2H2.17358C1.25311 3.2 0.5 3.965 0.5 4.9V16.8C0.5 17.735 1.25311 18.5 2.17358 18.5H17.8264C18.7469 18.5 19.5 17.735 19.5 16.8V4.9C19.5 3.965 18.7469 3.2 17.8264 3.2ZM10 2.9875C10.1841 2.9875 10.3431 3.0725 10.4602 3.2C10.5606 3.3105 10.6276 3.4635 10.6276 3.625C10.6276 3.9735 10.3431 4.2625 10 4.2625C9.65692 4.2625 9.37241 3.9735 9.37241 3.625C9.37241 3.4635 9.43935 3.3105 9.53977 3.2C9.65692 3.0725 9.81591 2.9875 10 2.9875ZM16.842 16.8C17.3857 16.8 17.8264 16.3523 17.8264 15.8V5.9C17.8264 5.34772 17.3857 4.9 16.842 4.9H3.15803C2.61433 4.9 2.17358 5.34772 2.17358 5.9V15.8C2.17358 16.3523 2.61433 16.8 3.15803 16.8H16.842ZM9.99998 5.75C8.61928 5.75 7.48961 6.8975 7.48961 8.3C7.48961 9.7025 8.61928 10.85 9.99998 10.85C11.3807 10.85 12.5103 9.7025 12.5103 8.3C12.5103 6.8975 11.3807 5.75 9.99998 5.75ZM9.16326 8.3C9.16326 8.7675 9.53982 9.15 10 9.15C10.4603 9.15 10.8368 8.7675 10.8368 8.3C10.8368 7.8325 10.4603 7.45 10 7.45C9.53982 7.45 9.16326 7.8325 9.16326 8.3ZM4.97932 14.6495V15.95H15.0208V14.6495C15.0208 12.5245 11.6987 11.6065 10 11.6065C8.30137 11.6065 4.97932 12.516 4.97932 14.6495ZM10 13.298C8.90386 13.298 7.48969 13.774 6.9123 14.25H13.0878C12.5188 13.774 11.0962 13.298 10 13.298Z" fill="#37352F"/>
</svg>
