<svg width="20" height="20" viewBox="0 0 20 20" fill="none" xmlns="http://www.w3.org/2000/svg">
<path fill-rule="evenodd" clip-rule="evenodd" d="M17.6 5.07895C18.6545 5.07895 19.5 5.87526 19.5 6.86842V16.7105C19.5 17.7037 18.6545 18.5 17.6 18.5H2.4C1.3455 18.5 0.5 17.7037 0.5 16.7105L0.5095 6.86842C0.5095 5.87526 1.3455 5.07895 2.4 5.07895H6.2V3.28947C6.2 2.29632 7.0455 1.5 8.1 1.5H11.9C12.9545 1.5 13.8 2.29632 13.8 3.28947V5.07895H17.6ZM11.6876 4.78947C11.8049 4.78947 11.9 4.69993 11.9 4.58947V3.2C11.9 3.08954 11.8049 3 11.6876 3H8.31235C8.19507 3 8.1 3.08954 8.1 3.2V4.58947C8.1 4.69993 8.19507 4.78947 8.31235 4.78947H11.6876ZM2.56765 8.5C2.56765 7.94772 3.04302 7.5 3.62941 7.5H16.3706C16.957 7.5 17.4324 7.94772 17.4324 8.5V15.5C17.4324 16.0523 16.957 16.5 16.3706 16.5H3.62941C3.04302 16.5 2.56765 16.0523 2.56765 15.5V8.5Z" fill="#37352F"/>
</svg>
