<svg width="48" height="28" viewBox="0 0 48 28" fill="none" xmlns="http://www.w3.org/2000/svg">
<path d="M17.3395 11.6562H13.6065C13.5384 11.1733 13.3991 10.7443 13.1889 10.3693C12.9787 9.98864 12.7088 9.66477 12.3793 9.39773C12.0497 9.13068 11.669 8.92614 11.2372 8.78409C10.8111 8.64205 10.348 8.57102 9.84801 8.57102C8.9446 8.57102 8.15767 8.79545 7.48722 9.24432C6.81676 9.6875 6.29688 10.3352 5.92756 11.1875C5.55824 12.0341 5.37358 13.0625 5.37358 14.2727C5.37358 15.517 5.55824 16.5625 5.92756 17.4091C6.30256 18.2557 6.82528 18.8949 7.49574 19.3267C8.16619 19.7585 8.94176 19.9744 9.82244 19.9744C10.3168 19.9744 10.7741 19.9091 11.1946 19.7784C11.6207 19.6477 11.9986 19.4574 12.3281 19.2074C12.6577 18.9517 12.9304 18.642 13.1463 18.2784C13.3679 17.9148 13.5213 17.5 13.6065 17.0341L17.3395 17.0511C17.2429 17.8523 17.0014 18.625 16.6151 19.3693C16.2344 20.108 15.7202 20.7699 15.0724 21.3551C14.4304 21.9347 13.6634 22.3949 12.7713 22.7358C11.8849 23.071 10.8821 23.2386 9.76278 23.2386C8.20597 23.2386 6.81392 22.8864 5.58665 22.1818C4.36506 21.4773 3.39915 20.4574 2.68892 19.1222C1.98438 17.7869 1.6321 16.1705 1.6321 14.2727C1.6321 12.3693 1.99006 10.75 2.70597 9.41477C3.42188 8.07955 4.39347 7.0625 5.62074 6.36364C6.84801 5.65909 8.22869 5.30682 9.76278 5.30682C10.7741 5.30682 11.7116 5.44886 12.5753 5.73295C13.4446 6.01705 14.2145 6.43182 14.8849 6.97727C15.5554 7.51704 16.1009 8.17898 16.5213 8.96307C16.9474 9.74716 17.2202 10.6449 17.3395 11.6562ZM19.9858 5.54545H24.5369L29.3438 17.2727H29.5483L34.3551 5.54545H38.9062V23H35.3267V11.6392H35.1818L30.6648 22.9148H28.2273L23.7102 11.5966H23.5653V23H19.9858V5.54545Z" fill="#37352F"/>
<path d="M44.0007 23.2216C43.4382 23.2216 42.9553 23.0227 42.5518 22.625C42.1541 22.2216 41.9553 21.7386 41.9553 21.1761C41.9553 20.6193 42.1541 20.142 42.5518 19.7443C42.9553 19.3466 43.4382 19.1477 44.0007 19.1477C44.5462 19.1477 45.0234 19.3466 45.4325 19.7443C45.8416 20.142 46.0462 20.6193 46.0462 21.1761C46.0462 21.5511 45.9496 21.8949 45.7564 22.2074C45.5689 22.5142 45.3217 22.7614 45.0149 22.9489C44.7081 23.1307 44.37 23.2216 44.0007 23.2216Z" fill="#32D583"/>
</svg>
